<?xml version="1.0" encoding="utf-8"?>
<!-- Generator: Adobe Illustrator 26.0.3, SVG Export Plug-In . SVG Version: 6.00 Build 0)  -->
<svg version="1.1" id="Layer_1" xmlns="http://www.w3.org/2000/svg" xmlns:xlink="http://www.w3.org/1999/xlink" x="0px" y="0px"
	 viewBox="0 0 360 216" style="enable-background:new 0 0 360 216;" xml:space="preserve">
<path d="M17,90.9c-0.2,2.2,0.2,4.3,1.4,6.2c1.2,1.7,2.7,3.1,4.5,4c2,1.1,4.2,2.1,6.3,2.8c2.3,0.8,4.6,1.7,7,2.7
	c2.3,0.9,4.5,2.2,6.5,3.7c2,1.5,3.6,3.5,4.8,5.7c1.3,2.7,1.9,5.7,1.8,8.7c0.1,3.7-0.9,7.4-2.8,10.6c-1.8,2.9-4.4,5.4-7.5,7
	c-3.1,1.6-6.6,2.5-10.2,2.5c-4.3,0.2-8.5-0.9-12.3-3.1c-2.9-1.7-5.5-4-7.6-6.8C8.4,134,7.9,133,7.5,132c-0.3-0.9-0.5-1.9-0.5-2.9
	c0-1.5,0.5-3,1.4-4.2c1-1.2,2.4-1.8,4-1.7c1.4,0,2.7,0.7,3.5,1.8c1.5,2,1.8,4.6,0.8,6.9c-0.2,0.4-0.1,0.9,0.2,1.3
	c1.4,1.4,3.2,2.6,5.1,3.2c4.3,1.5,9,1.3,13.1-0.5c2.2-1,4.1-2.5,5.6-4.4c1.5-2,2.2-4.3,2.2-6.8c0.1-2.1-0.5-4.1-1.8-5.7
	c-1.3-1.6-2.8-2.9-4.6-3.8c-2-1.1-4.1-2-6.3-2.8c-2.3-0.9-4.6-1.8-6.9-2.8c-2.3-1-4.4-2.2-6.3-3.7c-1.9-1.5-3.5-3.4-4.6-5.5
	c-1.2-2.6-1.9-5.4-1.8-8.2c0-4.8,1-8.7,2.9-11.6c1.8-2.8,4.4-5,7.4-6.3c3-1.3,6.2-1.9,9.4-1.9c3,0,6,0.5,8.8,1.5
	c2.5,0.9,4.9,2.3,6.8,4.1c1.7,1.5,2.7,3.7,2.7,6c0,1.5-0.6,3-1.5,4.2c-1.5,2-4.4,2.4-6.4,0.9c-0.3-0.2-0.6-0.5-0.9-0.9
	c-1-1.2-1.5-2.7-1.5-4.2c0-0.3,0-0.5,0-0.8c0-0.3,0.1-0.5,0.1-0.8c0.1-0.6,0.1-0.9,0.1-0.9c-1-0.7-2.1-1.1-3.3-1.4
	c-1.7-0.4-3.4-0.6-5.2-0.6c-2,0-3.9,0.3-5.8,1c-1.9,0.7-3.6,1.9-4.9,3.5C17.9,86,17.1,88.4,17,90.9z"/>
<path d="M103.1,122.3H73.9c-0.6,0-0.8,0.3-0.7,1c0.4,2.7,1.4,5.3,2.9,7.5c1.4,2.1,3.2,3.9,5.3,5.1c2.1,1.2,4.4,1.8,6.8,1.8
	c2.1,0,4.2-0.6,6-1.6c1.9-1.1,3.6-2.5,5-4.3c0.6-0.9,1.6-1.4,2.7-1.4c0.6,0,1.3,0.3,1.8,0.7c0.9,0.7,1.4,1.8,1.3,2.9
	c0,0.7-0.2,1.5-0.7,2c-1.9,2.6-4.4,4.8-7.2,6.3c-6.3,3.4-14,2.9-19.8-1.2c-3.3-2.4-6-5.6-7.8-9.3c-1.9-4-2.9-8.3-2.9-12.7
	c-0.1-4.4,0.9-8.8,2.7-12.8c1.6-3.7,4.2-6.9,7.4-9.3c3.1-2.3,6.8-3.5,10.6-3.5c3.6-0.1,7.2,0.9,10.2,2.9c3,2,5.4,4.8,7,8.1
	c1.8,3.8,2.9,7.8,3.2,12c0.2,1.5-0.2,3-1.2,4.1C105.8,121.7,104.5,122.3,103.1,122.3z M87.5,100c-3.6-0.1-7.1,1.3-9.6,4
	c-2.6,2.9-4.3,6.5-4.7,10.4c0,0.1,0,0.1,0,0.1c0,0,0,0.1,0,0.1c0,0.5,0.3,0.7,0.8,0.7h26.8c0.6,0,0.8-0.3,0.7-1
	c-0.7-4.5-2.1-8-4.4-10.6C94.7,101.3,91.5,100,87.5,100z"/>
<path d="M169.1,93.6c0.8-0.1,1.7,0.2,2.3,0.8c0.6,0.7,0.9,1.6,0.9,2.5c0,0.9-0.3,1.8-0.9,2.5c-0.6,0.6-1.4,1-2.3,0.9l-2.3-0.2
	c-0.4,0-0.8,0.2-0.9,0.6l-15.7,41.6c-0.4,1.5-1.7,2.5-3.2,2.4c-1.5,0-2.8-1-3.3-2.4l-16.3-41.6c-0.1-0.4-0.5-0.6-0.9-0.6l-2.3,0.2
	c-0.8,0.1-1.7-0.2-2.3-0.9c-0.6-0.7-1-1.6-0.9-2.5c0-0.9,0.3-1.8,0.9-2.5c0.6-0.7,1.4-1,2.3-0.8c1.4,0.1,2.7,0.2,3.8,0.3
	c1.1,0.1,2.1,0.1,3.2,0.1c1,0,2,0,3.1-0.1c1.1-0.1,2.3-0.2,3.7-0.3c0.8-0.1,1.7,0.2,2.3,0.8c1.2,1.4,1.2,3.4,0.1,4.9
	c-0.5,0.6-1.2,1-2,1c-0.5,0-1.1,0-1.6-0.1c-0.6-0.1-1.2-0.1-1.8-0.2h-0.2c-0.6,0-0.7,0.3-0.4,1l12.2,31.8c0.2,0.4,0.3,0.6,0.5,0.6
	c0.3,0,0.4-0.2,0.5-0.6l11.4-31.8c0.1-0.2,0.1-0.3,0.1-0.5c0-0.2-0.1-0.5-0.4-0.5c0,0-0.1,0-0.1,0c-0.6,0-1.2,0.1-1.8,0.1
	c-0.6,0.1-1.2,0.1-1.9,0.1c-0.8,0-1.5-0.4-2-1c-1.1-1.4-1.1-3.5,0.1-4.9c0.6-0.7,1.4-1,2.3-0.8c1.4,0.1,2.7,0.2,3.8,0.3
	c1.1,0.1,2.1,0.1,3.1,0.1c1,0,2,0,3.1-0.1C166.5,93.9,167.7,93.8,169.1,93.6z"/>
<path d="M230.7,93.6c0.8-0.1,1.7,0.2,2.3,0.8c0.6,0.7,0.9,1.6,0.9,2.5c0,0.9-0.3,1.8-0.9,2.5c-0.6,0.6-1.4,1-2.3,0.9l-2.3-0.2
	c-0.4,0-0.8,0.2-0.9,0.6l-15.7,41.6c-0.4,1.5-1.7,2.5-3.2,2.4c-1.5,0-2.8-1-3.3-2.4l-16.3-41.6c-0.1-0.4-0.5-0.6-0.9-0.6l-2.3,0.2
	c-0.8,0.1-1.7-0.2-2.3-0.9c-0.6-0.7-1-1.6-0.9-2.5c0-0.9,0.3-1.8,0.9-2.5c0.6-0.7,1.4-1,2.3-0.8c1.4,0.1,2.7,0.2,3.8,0.3
	c1.1,0.1,2.1,0.1,3.2,0.1c1,0,2,0,3.1-0.1c1.1-0.1,2.3-0.2,3.7-0.3c0.8-0.1,1.7,0.2,2.3,0.8c1.2,1.4,1.2,3.4,0.1,4.9
	c-0.5,0.6-1.2,1-2,1c-0.5,0-1.1,0-1.6-0.1c-0.6-0.1-1.2-0.1-1.8-0.2h-0.2c-0.6,0-0.7,0.3-0.4,1l12.2,31.8c0.2,0.4,0.3,0.6,0.5,0.6
	c0.3,0,0.4-0.2,0.5-0.6l11.4-31.8c0.1-0.2,0.1-0.3,0.1-0.5c0-0.2-0.1-0.5-0.4-0.5c0,0-0.1,0-0.1,0c-0.6,0-1.2,0.1-1.8,0.1
	c-0.6,0.1-1.2,0.1-1.9,0.1c-0.8,0-1.5-0.4-2-1c-1.1-1.4-1.1-3.5,0.1-4.9c0.6-0.7,1.4-1,2.3-0.8c1.4,0.1,2.7,0.2,3.8,0.3
	c1.1,0.1,2.1,0.1,3.1,0.1c1,0,2,0,3.1-0.1C228,93.9,229.3,93.8,230.7,93.6z"/>
<path d="M283.5,122.3h-29.2c-0.6,0-0.8,0.3-0.7,1c0.4,2.7,1.4,5.2,2.9,7.5c1.4,2.1,3.2,3.9,5.3,5.1c2.1,1.2,4.4,1.8,6.8,1.8
	c2.1,0,4.2-0.6,6-1.6c1.9-1.1,3.6-2.5,5-4.3c0.6-0.9,1.6-1.4,2.7-1.4c0.6,0,1.3,0.3,1.8,0.7c0.9,0.7,1.4,1.8,1.3,2.9
	c0,0.7-0.2,1.5-0.7,2c-1.9,2.6-4.4,4.8-7.2,6.3c-6.3,3.4-14,2.9-19.8-1.2c-3.3-2.4-6-5.6-7.8-9.3c-1.9-4-2.9-8.3-2.9-12.7
	c-0.1-4.4,0.9-8.8,2.7-12.8c1.6-3.7,4.2-6.9,7.4-9.3c3.1-2.3,6.8-3.5,10.6-3.5c3.6-0.1,7.2,0.9,10.2,2.9c3,2,5.4,4.8,7,8.1
	c1.8,3.8,2.9,7.8,3.2,12c0.2,1.5-0.2,3-1.2,4.1C286.2,121.7,284.9,122.3,283.5,122.3z M267.9,100c-3.6-0.1-7.1,1.3-9.6,4
	c-2.6,2.9-4.3,6.5-4.7,10.4c0,0.1,0,0.1,0,0.1c0,0,0,0.1,0,0.1c0,0.5,0.2,0.7,0.8,0.7h26.8c0.6,0,0.8-0.3,0.7-1
	c-0.7-4.5-2.1-8-4.4-10.6C275.2,101.3,272,100,267.9,100z"/>
<path d="M349.7,93.6c0.8-0.1,1.6,0.2,2.2,0.8c0.6,0.7,0.9,1.6,0.9,2.6c0,0.9-0.3,1.8-0.9,2.5c-0.5,0.6-1.3,1-2.2,0.9l-1.5-0.2h-0.2
	c-0.3,0-0.5,0.2-0.8,0.6l-20.5,52.9c-3.9,9.5-8.9,14.2-14.9,14.2c-1.8,0-3.7-0.5-5.2-1.5c-1.6-1-2.9-2.3-3.8-4
	c-0.9-1.6-1.4-3.5-1.4-5.4c-0.1-1.8,0.5-3.6,1.5-5.1c0.9-1.3,2.3-2,3.8-2c1.3,0,2.6,0.6,3.4,1.7c0.9,1.1,1.4,2.6,1.4,4
	c0,0.8-0.1,1.6-0.4,2.4c-0.2,0.6-0.5,1.1-1,1.5c-0.4,0.4-0.5,0.8-0.2,1.2c0.5,0.5,1.2,0.8,1.9,0.8c3.6,0,6.5-3,8.8-9.1l3-7.9
	c0.1-0.4,0.1-0.8,0-1.2l-16.2-42.7c-0.2-0.4-0.5-0.6-0.8-0.6c-0.4,0-0.8,0-1.2,0.1c-0.4,0.1-0.8,0.1-1.3,0.1c-0.8,0-1.5-0.4-2-1
	c-0.6-0.7-0.8-1.5-0.8-2.4c0-0.9,0.3-1.9,0.9-2.6c0.5-0.6,1.4-1,2.2-0.8c1.6,0.1,2.9,0.2,4,0.3c1,0.1,2,0.1,3,0.1c0.9,0,1.9,0,3-0.1
	c1.1-0.1,2.4-0.2,3.9-0.3c0.8-0.1,1.6,0.2,2.2,0.8c0.6,0.7,0.9,1.6,0.9,2.6c0,0.9-0.3,1.8-0.9,2.5c-0.5,0.6-1.3,1-2.2,0.9
	c-0.6-0.1-1.2-0.2-1.8-0.2c-0.7,0-1.3-0.1-2-0.1h-0.2c-0.6,0-0.7,0.3-0.4,1l12.7,33.3c0.2,0.4,0.3,0.6,0.5,0.6
	c0.3,0,0.4-0.2,0.5-0.6l12.8-33.4c0.1-0.2,0.1-0.3,0.1-0.5c0-0.2-0.1-0.5-0.4-0.5c0,0-0.1,0-0.1,0c-0.7,0-1.5,0-2.2,0.1
	c-0.8,0.1-1.5,0.2-2.1,0.3c-0.8,0.1-1.6-0.3-2.2-0.9c-0.6-0.7-0.9-1.6-0.9-2.5c0-0.9,0.3-1.9,0.9-2.6c0.5-0.6,1.4-1,2.2-0.8
	c1.6,0.1,2.9,0.2,4,0.3c1,0.1,2,0.1,3,0.1c0.9,0,1.9,0,3-0.1C346.9,93.9,348.2,93.8,349.7,93.6z"/>
</svg>
